<svg width="39" height="49" viewBox="0 0 39 49" fill="none" xmlns="http://www.w3.org/2000/svg">
<path d="M5.21893 45.0088H4.46991C4.42562 44.8111 4.3481 44.6374 4.23736 44.4877C4.12863 44.3381 3.99574 44.2124 3.83869 44.1108C3.68365 44.0073 3.5115 43.9297 3.32223 43.878C3.13297 43.8262 2.93565 43.8004 2.73027 43.8004C2.35577 43.8004 2.01649 43.8872 1.71246 44.0609C1.41044 44.2346 1.16983 44.4905 0.99063 44.8287C0.813444 45.1668 0.724851 45.5816 0.724851 46.0731C0.724851 46.5646 0.813444 46.9795 0.99063 47.3176C1.16983 47.6557 1.41044 47.9117 1.71246 48.0854C2.01649 48.259 2.35577 48.3459 2.73027 48.3459C2.93565 48.3459 3.13297 48.32 3.32223 48.2683C3.5115 48.2165 3.68365 48.1399 3.83869 48.0382C3.99574 47.9348 4.12863 47.8082 4.23736 47.6585C4.3481 47.507 4.42562 47.3333 4.46991 47.1374H5.21893C5.16255 47.4275 5.05986 47.6872 4.91086 47.9163C4.76187 48.1454 4.57663 48.3403 4.35515 48.5011C4.13366 48.66 3.885 48.781 3.60915 48.8642C3.33532 48.9473 3.04236 48.9889 2.73027 48.9889C2.20274 48.9889 1.7336 48.8707 1.32285 48.6341C0.912104 48.3976 0.588941 48.0613 0.353365 47.6253C0.117788 47.1892 0 46.6718 0 46.0731C0 45.4744 0.117788 44.9571 0.353365 44.521C0.588941 44.0849 0.912104 43.7486 1.32285 43.5121C1.7336 43.2756 2.20274 43.1573 2.73027 43.1573C3.04236 43.1573 3.33532 43.1989 3.60915 43.2821C3.885 43.3652 4.13366 43.4872 4.35515 43.6479C4.57663 43.8068 4.76187 44.0008 4.91086 44.23C5.05986 44.4572 5.16255 44.7169 5.21893 45.0088Z" fill="#C3F7FF"/>
<path d="M8.21724 49C7.79844 49 7.43098 48.9085 7.11486 48.7256C6.80076 48.5427 6.55512 48.2868 6.37793 47.9579C6.20276 47.6289 6.11517 47.2446 6.11517 46.8048C6.11517 46.3614 6.20276 45.9743 6.37793 45.6435C6.55512 45.3128 6.80076 45.0559 7.11486 44.873C7.43098 44.6901 7.79844 44.5986 8.21724 44.5986C8.63605 44.5986 9.0025 44.6901 9.3166 44.873C9.63272 45.0559 9.87836 45.3128 10.0535 45.6435C10.2307 45.9743 10.3193 46.3614 10.3193 46.8048C10.3193 47.2446 10.2307 47.6289 10.0535 47.9579C9.87836 48.2868 9.63272 48.5427 9.3166 48.7256C9.0025 48.9085 8.63605 49 8.21724 49ZM8.21724 48.4124C8.53537 48.4124 8.79712 48.3376 9.0025 48.1879C9.20787 48.0382 9.35989 47.8414 9.45855 47.5975C9.55721 47.3536 9.60654 47.0894 9.60654 46.8048C9.60654 46.5203 9.55721 46.2551 9.45855 46.0094C9.35989 45.7636 9.20787 45.565 9.0025 45.4135C8.79712 45.262 8.53537 45.1862 8.21724 45.1862C7.89911 45.1862 7.63736 45.262 7.43199 45.4135C7.22661 45.565 7.0746 45.7636 6.97593 46.0094C6.87727 46.2551 6.82794 46.5203 6.82794 46.8048C6.82794 47.0894 6.87727 47.3536 6.97593 47.5975C7.0746 47.8414 7.22661 48.0382 7.43199 48.1879C7.63736 48.3376 7.89911 48.4124 8.21724 48.4124Z" fill="#C3F7FF"/>
<path d="M12.1201 43.2349V48.9113H11.4073V43.2349H12.1201Z" fill="#C3F7FF"/>
<path d="M14.1384 43.2349V48.9113H13.4256V43.2349H14.1384Z" fill="#C3F7FF"/>
<path d="M17.3889 49C16.9419 49 16.5563 48.9095 16.2321 48.7284C15.91 48.5454 15.6613 48.2905 15.4861 47.9634C15.313 47.6345 15.2264 47.252 15.2264 46.8159C15.2264 46.3799 15.313 45.9955 15.4861 45.6629C15.6613 45.3285 15.9049 45.0679 16.217 44.8813C16.5311 44.6928 16.8976 44.5986 17.3164 44.5986C17.558 44.5986 17.7966 44.6356 18.0322 44.7095C18.2678 44.7834 18.4822 44.9035 18.6755 45.0698C18.8688 45.2342 19.0228 45.4523 19.1376 45.7239C19.2523 45.9955 19.3097 46.33 19.3097 46.7272V47.0044H15.7338V46.439H18.5849C18.5849 46.1988 18.5325 45.9844 18.4278 45.796C18.3251 45.6075 18.1782 45.4587 17.9869 45.3497C17.7976 45.2407 17.5741 45.1862 17.3164 45.1862C17.0325 45.1862 16.7868 45.2509 16.5795 45.3802C16.3741 45.5077 16.216 45.674 16.1053 45.8791C15.9945 46.0842 15.9392 46.3041 15.9392 46.5388V46.9157C15.9392 47.2372 15.9996 47.5098 16.1204 47.7334C16.2432 47.9551 16.4133 48.1242 16.6308 48.2406C16.8483 48.3551 17.1009 48.4124 17.3889 48.4124C17.5761 48.4124 17.7453 48.3884 17.8963 48.3403C18.0493 48.2905 18.1812 48.2165 18.2919 48.1186C18.4027 48.0188 18.4882 47.895 18.5486 47.7472L19.2372 47.9246C19.1648 48.1389 19.0429 48.3274 18.8718 48.49C18.7006 48.6508 18.4892 48.7764 18.2376 48.867C17.9859 48.9557 17.703 49 17.3889 49Z" fill="#C3F7FF"/>
<path d="M22.2786 49C21.8437 49 21.4692 48.9058 21.1551 48.7173C20.841 48.5288 20.5994 48.2692 20.4302 47.9385C20.2611 47.6077 20.1765 47.2298 20.1765 46.8048C20.1765 46.3725 20.2631 45.9909 20.4363 45.6601C20.6114 45.3276 20.8551 45.0679 21.1672 44.8813C21.4813 44.6928 21.8477 44.5986 22.2665 44.5986C22.5927 44.5986 22.8867 44.654 23.1484 44.7649C23.4102 44.8758 23.6246 45.031 23.7917 45.2305C23.9588 45.4301 24.0625 45.6629 24.1028 45.929H23.39C23.3357 45.735 23.2149 45.5631 23.0276 45.4135C22.8424 45.262 22.5927 45.1862 22.2786 45.1862C22.0007 45.1862 21.7571 45.2527 21.5477 45.3858C21.3403 45.5169 21.1782 45.7026 21.0614 45.9429C20.9467 46.1812 20.8893 46.4612 20.8893 46.7827C20.8893 47.1116 20.9457 47.398 21.0584 47.6419C21.1732 47.8858 21.3343 48.0752 21.5417 48.2101C21.7511 48.345 21.9967 48.4124 22.2786 48.4124C22.4638 48.4124 22.632 48.3828 22.783 48.3237C22.934 48.2646 23.0618 48.1796 23.1665 48.0687C23.2712 47.9579 23.3457 47.8248 23.39 47.6696H24.1028C24.0625 47.9209 23.9629 48.1473 23.8038 48.3487C23.6468 48.5482 23.4384 48.7071 23.1786 48.8254C22.9209 48.9418 22.6209 49 22.2786 49Z" fill="#C3F7FF"/>
<path d="M27.1623 44.654V45.2084H24.7582V44.654H27.1623ZM25.4589 43.6341H26.1716V47.6918C26.1716 47.8766 26.2008 48.0151 26.2592 48.1075C26.3196 48.1981 26.3962 48.259 26.4888 48.2905C26.5834 48.32 26.6831 48.3348 26.7878 48.3348C26.8663 48.3348 26.9307 48.3311 26.9811 48.3237C27.0314 48.3145 27.0717 48.3071 27.1019 48.3015L27.2468 48.8891C27.1985 48.9058 27.1311 48.9224 27.0445 48.939C26.9579 48.9575 26.8482 48.9667 26.7153 48.9667C26.5139 48.9667 26.3166 48.927 26.1233 48.8476C25.932 48.7681 25.773 48.6471 25.6461 48.4845C25.5213 48.3219 25.4589 48.1168 25.4589 47.8692V43.6341Z" fill="#C3F7FF"/>
<path d="M28.2345 48.9113V44.654H28.9472V48.9113H28.2345ZM28.5969 43.9445C28.4579 43.9445 28.3381 43.9011 28.2375 43.8142C28.1388 43.7274 28.0895 43.623 28.0895 43.501C28.0895 43.3791 28.1388 43.2747 28.2375 43.1878C28.3381 43.101 28.4579 43.0576 28.5969 43.0576C28.7358 43.0576 28.8546 43.101 28.9533 43.1878C29.0539 43.2747 29.1043 43.3791 29.1043 43.501C29.1043 43.623 29.0539 43.7274 28.9533 43.8142C28.8546 43.9011 28.7358 43.9445 28.5969 43.9445Z" fill="#C3F7FF"/>
<path d="M32.1373 49C31.7185 49 31.3511 48.9085 31.0349 48.7256C30.7208 48.5427 30.4752 48.2868 30.298 47.9579C30.1228 47.6289 30.0353 47.2446 30.0353 46.8048C30.0353 46.3614 30.1228 45.9743 30.298 45.6435C30.4752 45.3128 30.7208 45.0559 31.0349 44.873C31.3511 44.6901 31.7185 44.5986 32.1373 44.5986C32.5561 44.5986 32.9226 44.6901 33.2367 44.873C33.5528 45.0559 33.7984 45.3128 33.9736 45.6435C34.1508 45.9743 34.2394 46.3614 34.2394 46.8048C34.2394 47.2446 34.1508 47.6289 33.9736 47.9579C33.7984 48.2868 33.5528 48.5427 33.2367 48.7256C32.9226 48.9085 32.5561 49 32.1373 49ZM32.1373 48.4124C32.4555 48.4124 32.7172 48.3376 32.9226 48.1879C33.128 48.0382 33.28 47.8414 33.3786 47.5975C33.4773 47.3536 33.5266 47.0894 33.5266 46.8048C33.5266 46.5203 33.4773 46.2551 33.3786 46.0094C33.28 45.7636 33.128 45.565 32.9226 45.4135C32.7172 45.262 32.4555 45.1862 32.1373 45.1862C31.8192 45.1862 31.5574 45.262 31.3521 45.4135C31.1467 45.565 30.9947 45.7636 30.896 46.0094C30.7974 46.2551 30.748 46.5203 30.748 46.8048C30.748 47.0894 30.7974 47.3536 30.896 47.5975C30.9947 47.8414 31.1467 48.0382 31.3521 48.1879C31.5574 48.3376 31.8192 48.4124 32.1373 48.4124Z" fill="#C3F7FF"/>
<path d="M36.0402 46.3503V48.9113H35.3274V44.654H36.016V45.3192H36.0764C36.1852 45.103 36.3503 44.9294 36.5718 44.7982C36.7932 44.6651 37.0791 44.5986 37.4295 44.5986C37.7436 44.5986 38.0184 44.6577 38.254 44.776C38.4896 44.8924 38.6728 45.0698 38.8037 45.3082C38.9346 45.5447 39 45.844 39 46.2062V48.9113H38.2872V46.2505C38.2872 45.9161 38.1926 45.6555 38.0033 45.4689C37.8141 45.2804 37.5543 45.1862 37.2241 45.1862C36.9966 45.1862 36.7932 45.2315 36.614 45.322C36.4368 45.4125 36.2969 45.5447 36.1942 45.7184C36.0915 45.892 36.0402 46.1027 36.0402 46.3503Z" fill="#C3F7FF"/>
<path fill-rule="evenodd" clip-rule="evenodd" d="M28.3598 0C31.4912 6.70457e-08 34.0297 2.32961 34.0297 5.20333V20.293C34.0297 22.2517 32.8499 23.9567 31.1073 24.8444C30.8058 26.4139 29.7384 27.7402 28.2712 28.4872C27.8023 30.9271 25.483 32.781 22.6898 32.781H10.7829C7.65151 32.781 5.11299 30.4514 5.11299 27.5777V12.488C5.11299 10.529 6.29297 8.82325 8.036 7.93559C8.33768 6.36653 9.40434 5.04021 10.871 4.29326C11.34 1.85356 13.6598 5.98006e-08 16.4529 0H28.3598ZM11.9169 9.88633C9.72493 9.88633 7.94797 11.5171 7.94797 13.5287V27.0573C7.94797 29.0689 9.72493 30.6996 11.9169 30.6996H21.5558C23.7478 30.6996 25.5248 29.0689 25.5248 27.0573V13.5287C25.5248 11.5171 23.7478 9.88633 21.5558 9.88633H11.9169ZM14.7519 6.244C13.6706 6.244 12.6907 6.64102 11.9751 7.28466H22.6898C25.8212 7.28466 28.3598 9.61427 28.3598 12.488V9.88633C28.3598 7.87472 26.5828 6.244 24.3908 6.244H14.7519ZM17.5869 2.60167C16.5056 2.60167 15.5257 2.99869 14.81 3.64233H25.5248C28.6562 3.64233 31.1947 5.97194 31.1947 8.84566V6.244C31.1947 4.23239 29.4178 2.60167 27.2258 2.60167H17.5869Z" fill="#C3F7FF"/>
</svg>
