<svg width="29" height="41" viewBox="0 0 29 41" fill="none" xmlns="http://www.w3.org/2000/svg">
<path fill-rule="evenodd" clip-rule="evenodd" d="M22.0652 35.9307C22.3066 35.9307 22.4983 35.9704 22.64 36.0485C22.7832 36.125 22.8925 36.2123 22.9682 36.3107C23.0454 36.4075 23.1056 36.4866 23.1474 36.549H23.2053V35.9776H23.7555V39.6786C23.7555 39.9878 23.6831 40.2395 23.5383 40.4332C23.395 40.6282 23.2016 40.7705 22.9587 40.861C22.7172 40.9532 22.4486 41 22.1524 41C21.8774 41 21.6408 40.9655 21.4429 40.8969C21.2449 40.8298 21.0798 40.74 20.9478 40.6292C20.8175 40.5199 20.7129 40.4034 20.6357 40.2786L21.09 39.9694C21.1415 40.0349 21.2067 40.1097 21.2854 40.1939C21.3643 40.2798 21.4722 40.3542 21.6089 40.4166C21.7473 40.4806 21.9287 40.5123 22.1524 40.5123C22.4517 40.5123 22.6985 40.442 22.8932 40.3016C23.088 40.161 23.1854 39.9407 23.1854 39.6409V38.9102H23.138C23.0961 38.9758 23.036 39.0573 22.9587 39.1541C22.8831 39.2493 22.7736 39.3341 22.6305 39.409C22.4888 39.4824 22.2971 39.5194 22.0557 39.5194C21.7564 39.5194 21.4876 39.4507 21.2494 39.3133C21.0128 39.1759 20.8253 38.9757 20.6869 38.7133C20.5502 38.4511 20.4821 38.1327 20.482 37.7582C20.482 37.3898 20.5487 37.0689 20.6822 36.7957C20.8158 36.5208 21.0017 36.3079 21.2399 36.158C21.478 36.0066 21.7531 35.9307 22.0652 35.9307ZM22.1335 36.4276C21.892 36.4276 21.6902 36.4865 21.5292 36.6052C21.3699 36.7238 21.2502 36.8838 21.1697 37.0837C21.0909 37.2835 21.0512 37.5055 21.0512 37.749C21.0512 37.9986 21.0921 38.2195 21.1726 38.4115C21.2547 38.6019 21.3747 38.7522 21.534 38.8615C21.6949 38.9692 21.8952 39.0225 22.1335 39.0225C22.3619 39.0225 22.5553 38.9721 22.713 38.8707C22.8706 38.7692 22.9905 38.623 23.0725 38.4327C23.1546 38.2423 23.1958 38.0142 23.1958 37.749C23.1958 37.4898 23.1549 37.2608 23.0744 37.0625C22.994 36.8643 22.8754 36.7084 22.7178 36.596C22.5601 36.4836 22.3651 36.4276 22.1335 36.4276Z" fill="#C3F7FF"/>
<path d="M3.52196 34.7133C3.84054 34.7133 4.12407 34.7681 4.37186 34.8789C4.61968 34.9882 4.81607 35.1384 4.96091 35.3289C5.10733 35.5193 5.18428 35.7357 5.19236 35.9776H4.6128C4.58379 35.7404 4.4668 35.5557 4.26088 35.4246C4.05485 35.2934 3.80144 35.2286 3.50204 35.2286C3.28324 35.2286 3.09134 35.2629 2.92722 35.3316C2.76488 35.4003 2.63757 35.4949 2.54591 35.615C2.45595 35.7352 2.41123 35.8717 2.41121 36.0245C2.41121 36.1526 2.44234 36.2627 2.50512 36.3549C2.56951 36.4454 2.65194 36.5213 2.75174 36.5822C2.85145 36.6414 2.95636 36.6904 3.06571 36.7294C3.17505 36.7668 3.27568 36.798 3.36735 36.8214L3.86913 36.9521C3.99787 36.9849 4.14113 37.0305 4.29883 37.0883C4.45813 37.146 4.61025 37.2249 4.75508 37.3248C4.90149 37.4231 5.02247 37.5494 5.11742 37.7039C5.21239 37.8585 5.25971 38.0486 5.25971 38.2735C5.25966 38.5325 5.18995 38.7665 5.05008 38.9756C4.91165 39.1848 4.70831 39.3519 4.44111 39.4752C4.17567 39.5984 3.85311 39.6602 3.47359 39.6602C3.11951 39.6602 2.81263 39.6045 2.55349 39.4936C2.29595 39.3828 2.09261 39.2282 1.94453 39.0299C1.79811 38.8316 1.71532 38.6011 1.69601 38.3388H2.31446C2.33055 38.5199 2.39286 38.6701 2.50227 38.7888C2.61328 38.9058 2.75358 38.9933 2.92248 39.051C3.0931 39.1073 3.27721 39.1348 3.47359 39.1348C3.70206 39.1347 3.90737 39.0989 4.0892 39.0271C4.27096 38.9537 4.4146 38.8521 4.52079 38.7225C4.62691 38.5915 4.68006 38.439 4.68014 38.2643C4.68014 38.105 4.63435 37.975 4.5426 37.875C4.45093 37.7752 4.3307 37.6936 4.18121 37.6312C4.03152 37.5687 3.86937 37.5142 3.69555 37.4674L3.08658 37.299C2.70043 37.1913 2.39462 37.0369 2.16933 36.8371C1.94423 36.6373 1.83173 36.376 1.83165 36.0531C1.83165 35.7845 1.90676 35.5499 2.05646 35.35C2.20774 35.1487 2.41025 34.9925 2.66448 34.8817C2.92041 34.7692 3.20647 34.7133 3.52196 34.7133Z" fill="#C3F7FF"/>
<path fill-rule="evenodd" clip-rule="evenodd" d="M7.66428 35.9307C7.85735 35.9307 8.04801 35.9621 8.23625 36.0245C8.42449 36.087 8.5959 36.1887 8.75037 36.3291C8.90489 36.4681 9.02855 36.6526 9.1203 36.8821C9.21197 37.1116 9.25783 37.3941 9.25784 37.7296V37.9643H6.56681C6.57501 38.2035 6.62065 38.4087 6.70814 38.5799C6.80631 38.7672 6.94224 38.9103 7.11602 39.0087C7.28984 39.1055 7.49199 39.1541 7.72214 39.1541C7.87184 39.1541 8.00739 39.134 8.12812 39.0934C8.25036 39.0512 8.3555 38.9883 8.44399 38.9056C8.53252 38.8213 8.60153 38.7168 8.64982 38.5919L9.19998 38.7419C9.14204 38.9229 9.04457 39.0821 8.90783 39.2194C8.77101 39.3553 8.60156 39.4613 8.40035 39.5378C8.1992 39.6127 7.97316 39.6501 7.72214 39.6501C7.36483 39.6501 7.05644 39.574 6.7973 39.421C6.53982 39.2664 6.34068 39.0504 6.20067 38.7741C6.06245 38.4963 5.99393 38.1733 5.99388 37.8051C5.99388 37.4367 6.06236 37.1116 6.20067 36.8306C6.34064 36.5481 6.53564 36.3276 6.78497 36.1699C7.03608 36.0106 7.32947 35.9307 7.66428 35.9307ZM7.66428 36.4276C7.43736 36.4276 7.241 36.4821 7.07523 36.5914C6.91108 36.6991 6.78434 36.8395 6.69581 37.0128C6.62002 37.1612 6.57866 37.3191 6.56776 37.4858H8.67828C8.67822 37.283 8.63666 37.102 8.55307 36.9429C8.47098 36.7836 8.35313 36.6577 8.20021 36.5656C8.04892 36.4735 7.87027 36.4276 7.66428 36.4276Z" fill="#C3F7FF"/>
<path d="M26.1126 35.9307C26.4794 35.9307 26.7676 36.0092 26.9767 36.1653C27.1875 36.3215 27.3369 36.5277 27.4254 36.7837L26.9141 36.9245C26.8819 36.8417 26.8337 36.7605 26.7709 36.6825C26.7098 36.6031 26.6264 36.5379 26.5205 36.4865C26.4143 36.435 26.2782 36.4092 26.1126 36.4092C25.8857 36.4092 25.6957 36.4595 25.5444 36.561C25.3949 36.6609 25.3206 36.7884 25.3206 36.9429C25.3206 37.0803 25.3722 37.189 25.4752 37.2686C25.5782 37.3481 25.7394 37.4144 25.958 37.4674L26.5082 37.599C26.8395 37.677 27.0864 37.7962 27.249 37.9569C27.4116 38.1162 27.4937 38.322 27.4937 38.5735C27.4936 38.7794 27.4319 38.9633 27.3097 39.1256C27.189 39.2879 27.0203 39.4165 26.8032 39.5102C26.5859 39.6039 26.3324 39.6501 26.0443 39.6501C25.6662 39.65 25.3531 39.571 25.1053 39.4118C24.8574 39.2525 24.7008 39.0194 24.6348 38.7133L25.1754 38.5827C25.227 38.7761 25.3244 38.9211 25.4676 39.0179C25.6125 39.1147 25.8015 39.1633 26.0348 39.1633C26.3004 39.1633 26.5114 39.1088 26.6675 38.9995C26.8253 38.8886 26.9037 38.7557 26.9037 38.6011C26.9037 38.4762 26.8591 38.3716 26.769 38.2873C26.6789 38.2014 26.5403 38.1371 26.3535 38.095L25.7351 37.9551C25.3956 37.877 25.146 37.7555 24.9867 37.5916C24.829 37.4261 24.7505 37.2187 24.7505 36.9705C24.7506 36.7677 24.8095 36.5882 24.9269 36.4322C25.046 36.2761 25.2073 36.1531 25.4116 36.0641C25.6177 35.9751 25.8519 35.9307 26.1126 35.9307Z" fill="#C3F7FF"/>
<path d="M10.9453 35.9776H11.7373V36.446H10.9453V38.5449C10.9453 38.7011 10.9688 38.8184 11.0155 38.8964C11.0638 38.9729 11.1255 39.0245 11.1995 39.051C11.275 39.0759 11.355 39.0888 11.4386 39.0888C11.5009 39.0887 11.5521 39.0848 11.5922 39.0786C11.6323 39.0709 11.6649 39.0649 11.689 39.0602L11.8047 39.5571C11.7661 39.5711 11.7123 39.5846 11.6434 39.5985C11.5742 39.6142 11.486 39.6225 11.3797 39.6225C11.219 39.6224 11.0617 39.5883 10.9074 39.5213C10.7545 39.4541 10.6265 39.3522 10.5251 39.2148C10.4254 39.0775 10.3762 38.904 10.3762 38.6949V36.446H9.81559V35.9776H10.3762V35.1154H10.9453V35.9776Z" fill="#C3F7FF"/>
<path d="M13.4153 35.9776H14.2074V36.446H13.4153V38.5449C13.4153 38.7011 13.4388 38.8184 13.4855 38.8964C13.5338 38.9729 13.5955 39.0245 13.6695 39.051C13.7451 39.0759 13.825 39.0888 13.9086 39.0888C13.971 39.0887 14.0221 39.0848 14.0622 39.0786C14.1023 39.0709 14.1349 39.0649 14.159 39.0602L14.2747 39.5571C14.2362 39.5711 14.1823 39.5846 14.1135 39.5985C14.0443 39.6142 13.956 39.6225 13.8498 39.6225C13.689 39.6224 13.5317 39.5883 13.3774 39.5213C13.2245 39.4541 13.0965 39.3522 12.9951 39.2148C12.8954 39.0775 12.8462 38.904 12.8462 38.6949V36.446H12.2856V35.9776H12.8462V35.1154H13.4153V35.9776Z" fill="#C3F7FF"/>
<path d="M15.6349 39.5755H15.0649V35.9776H15.6349V39.5755Z" fill="#C3F7FF"/>
<path d="M18.3582 35.9307C18.6092 35.9307 18.8292 35.9808 19.0175 36.0807C19.2058 36.179 19.353 36.3292 19.4576 36.5306C19.5622 36.7305 19.6141 36.9838 19.6141 37.2898V39.5755H19.044V37.3266C19.044 37.0442 18.9685 36.8245 18.8173 36.6668C18.666 36.5075 18.4581 36.4276 18.1941 36.4276C18.0124 36.4276 17.8497 36.4661 17.7066 36.5426C17.5651 36.6191 17.4528 36.7309 17.3708 36.8775C17.2888 37.0243 17.2484 37.2022 17.2484 37.4113V39.5755H16.6783V35.9776H17.2285V36.5398H17.2769C17.3638 36.3572 17.4963 36.2108 17.6734 36.1C17.8503 35.9877 18.0784 35.9307 18.3582 35.9307Z" fill="#C3F7FF"/>
<path d="M15.3542 34.6286C15.4652 34.6286 15.5608 34.6656 15.6397 34.739C15.7199 34.8123 15.7601 34.9003 15.7601 35.0031C15.7601 35.1061 15.7201 35.1948 15.6397 35.2681C15.5608 35.3415 15.4652 35.3786 15.3542 35.3786C15.2432 35.3785 15.1472 35.3415 15.0668 35.2681C14.988 35.1948 14.9491 35.1061 14.9491 35.0031C14.9492 34.9003 14.9882 34.8123 15.0668 34.739C15.1472 34.6657 15.2432 34.6287 15.3542 34.6286Z" fill="#C3F7FF"/>
<path fill-rule="evenodd" clip-rule="evenodd" d="M17.6316 3.19122C19.6347 3.68679 21.4366 4.66774 22.9018 5.99412L25.9675 4.36906L29 8.57157L26.1762 10.9806C26.5566 12.1226 26.7633 13.3405 26.7633 14.6053C26.7633 16.0709 26.4841 17.4729 25.9798 18.7673L29 21.3447L25.9675 25.5472L22.3934 23.6526C21.0274 24.758 19.4084 25.5787 17.6316 26.0184L17.2664 29.2105H11.9773L11.6112 26.0184C9.79284 25.5683 8.14024 24.7185 6.75462 23.5734L3.03346 25.5472L0 21.3447L3.20135 18.6118C2.73504 17.3611 2.48046 16.012 2.48046 14.6053C2.48046 13.4005 2.66711 12.2381 3.01354 11.1435L0 8.57157L3.03346 4.36906L6.25284 6.07602C7.73352 4.7083 9.56761 3.69699 11.6112 3.19122L11.9773 0H17.2664L17.6316 3.19122ZM14.6219 8.48047C11.135 8.48047 8.30834 11.2226 8.30834 14.6053C8.30834 17.9879 11.135 20.73 14.6219 20.73C18.1088 20.73 20.9354 17.9879 20.9354 14.6053C20.9354 11.2226 18.1088 8.48047 14.6219 8.48047Z" fill="#C3F7FF"/>
</svg>
