<svg width="41" height="47" viewBox="0 0 41 47" fill="none" xmlns="http://www.w3.org/2000/svg">
<path fill-rule="evenodd" clip-rule="evenodd" d="M32.3302 0C33.1807 5.38645e-05 33.9833 0.389303 34.5019 1.05326L38.1684 5.7481C39.5544 7.52304 38.2695 10.0929 35.9961 10.0929H33.6794V23.3277C33.6794 26.3089 31.2258 28.7257 28.1993 28.7257H12.3616C9.33512 28.7256 6.88151 26.3089 6.88151 23.3277V10.0929H4.73496C2.43157 10.0928 1.15606 7.46314 2.6034 5.69802L6.45284 1.00318C6.973 0.368861 7.75662 6.28357e-05 8.58441 0H32.3302ZM18.3779 12.4224C17.47 12.4224 16.7339 13.1474 16.7339 14.0418V18.1784C16.7339 19.0728 17.47 19.7978 18.3779 19.7978H22.5774C23.4853 19.7978 24.2214 19.0728 24.2214 18.1784V14.0418C24.2214 13.1475 23.4853 12.4224 22.5774 12.4224H18.3779Z" fill="#C3F7FF"/>
<path d="M0 45.3438V39.455H2.02001C2.48901 39.455 2.87238 39.5384 3.17013 39.7051C3.46982 39.87 3.69167 40.0933 3.83568 40.3751C3.97968 40.6569 4.05169 40.9713 4.05169 41.3182C4.05169 41.6652 3.97968 41.9805 3.83568 42.2642C3.69361 42.5479 3.47371 42.7741 3.17596 42.9428C2.87822 43.1096 2.49679 43.193 2.03168 43.193H0.583817V42.5604H2.00833C2.32943 42.5604 2.58728 42.5058 2.78189 42.3965C2.97649 42.2872 3.11758 42.1396 3.20515 41.9537C3.29467 41.7658 3.33943 41.554 3.33943 41.3182C3.33943 41.0824 3.29467 40.8716 3.20515 40.6856C3.11758 40.4997 2.97552 40.354 2.77897 40.2486C2.58242 40.1412 2.32165 40.0876 1.99665 40.0876H0.723933V45.3438H0Z" fill="#C3F7FF"/>
<path d="M6.8978 45.4358C6.49302 45.4358 6.13786 45.3409 5.83233 45.1511C5.52875 44.9613 5.29133 44.6959 5.12007 44.3546C4.95077 44.0134 4.86611 43.6147 4.86611 43.1585C4.86611 42.6984 4.95077 42.2968 5.12007 41.9537C5.29133 41.6106 5.52875 41.3441 5.83233 41.1543C6.13786 40.9646 6.49302 40.8697 6.8978 40.8697C7.30258 40.8697 7.65676 40.9646 7.96034 41.1543C8.26587 41.3441 8.50329 41.6106 8.6726 41.9537C8.84385 42.2968 8.92948 42.6984 8.92948 43.1585C8.92948 43.6147 8.84385 44.0134 8.6726 44.3546C8.50329 44.6959 8.26587 44.9613 7.96034 45.1511C7.65676 45.3409 7.30258 45.4358 6.8978 45.4358ZM6.8978 44.8262C7.20527 44.8262 7.45826 44.7486 7.65676 44.5933C7.85526 44.438 8.00218 44.2339 8.09754 43.9808C8.1929 43.7278 8.24057 43.4537 8.24057 43.1585C8.24057 42.8633 8.1929 42.5882 8.09754 42.3332C8.00218 42.0783 7.85526 41.8722 7.65676 41.715C7.45826 41.5578 7.20527 41.4792 6.8978 41.4792C6.59032 41.4792 6.33733 41.5578 6.13883 41.715C5.94034 41.8722 5.79341 42.0783 5.69805 42.3332C5.6027 42.5882 5.55502 42.8633 5.55502 43.1585C5.55502 43.4537 5.6027 43.7278 5.69805 43.9808C5.79341 44.2339 5.94034 44.438 6.13883 44.5933C6.33733 44.7486 6.59032 44.8262 6.8978 44.8262Z" fill="#C3F7FF"/>
<path d="M9.98108 45.3438V40.9272H10.67V45.3438H9.98108ZM10.3314 40.1911C10.1971 40.1911 10.0813 40.146 9.984 40.0559C9.88864 39.9658 9.84096 39.8575 9.84096 39.731C9.84096 39.6045 9.88864 39.4962 9.984 39.4061C10.0813 39.316 10.1971 39.2709 10.3314 39.2709C10.4656 39.2709 10.5805 39.316 10.6758 39.4061C10.7731 39.4962 10.8218 39.6045 10.8218 39.731C10.8218 39.8575 10.7731 39.9658 10.6758 40.0559C10.5805 40.146 10.4656 40.1911 10.3314 40.1911Z" fill="#C3F7FF"/>
<path d="M12.6207 42.6869V45.3438H11.9318V40.9272H12.5973V41.6173H12.6557C12.7608 41.393 12.9204 41.2128 13.1344 41.0767C13.3485 40.9387 13.6248 40.8697 13.9634 40.8697C14.267 40.8697 14.5327 40.931 14.7604 41.0537C14.988 41.1745 15.1651 41.3585 15.2916 41.6058C15.4181 41.8511 15.4814 42.1617 15.4814 42.5374V45.3438H14.7925V42.5834C14.7925 42.2364 14.701 41.9661 14.5181 41.7725C14.3351 41.577 14.0841 41.4792 13.7649 41.4792C13.545 41.4792 13.3485 41.5262 13.1753 41.6201C13.004 41.7141 12.8688 41.8511 12.7695 42.0313C12.6703 42.2115 12.6207 42.43 12.6207 42.6869Z" fill="#C3F7FF"/>
<path d="M18.6902 40.9272V41.5023H16.3666V40.9272H18.6902ZM17.0438 39.869H17.7327V44.0786C17.7327 44.2703 17.7609 44.4141 17.8174 44.5099C17.8757 44.6038 17.9497 44.6671 18.0392 44.6997C18.1307 44.7304 18.227 44.7457 18.3282 44.7457C18.4041 44.7457 18.4664 44.7419 18.515 44.7342C18.5637 44.7246 18.6026 44.7169 18.6318 44.7112L18.7719 45.3208C18.7252 45.338 18.66 45.3553 18.5763 45.3725C18.4926 45.3917 18.3866 45.4013 18.2581 45.4013C18.0635 45.4013 17.8728 45.3601 17.686 45.2776C17.5011 45.1952 17.3474 45.0696 17.2248 44.901C17.1041 44.7323 17.0438 44.5195 17.0438 44.2626V39.869Z" fill="#C3F7FF"/>
<path d="M25.4011 40.9272C25.3661 40.6358 25.2241 40.4096 24.975 40.2486C24.7259 40.0876 24.4203 40.007 24.0584 40.007C23.7937 40.007 23.5621 40.0492 23.3636 40.1336C23.1671 40.2179 23.0133 40.3339 22.9024 40.4815C22.7934 40.6291 22.7389 40.7968 22.7389 40.9847C22.7389 41.1419 22.7769 41.277 22.8528 41.3901C22.9306 41.5013 23.0299 41.5943 23.1505 41.669C23.2712 41.7419 23.3977 41.8022 23.53 41.8502C23.6623 41.8962 23.784 41.9336 23.8949 41.9623L24.5021 42.1233C24.6577 42.1636 24.8309 42.2192 25.0217 42.2901C25.2143 42.361 25.3982 42.4578 25.5734 42.5805C25.7505 42.7013 25.8964 42.8566 26.0112 43.0463C26.126 43.2361 26.1835 43.469 26.1835 43.7451C26.1835 44.0633 26.0988 44.3508 25.9295 44.6077C25.7621 44.8645 25.5169 45.0687 25.1939 45.2201C24.8728 45.3716 24.4826 45.4473 24.0233 45.4473C23.5952 45.4473 23.2245 45.3792 22.9112 45.2431C22.5998 45.107 22.3546 44.9173 22.1756 44.6738C21.9985 44.4304 21.8982 44.1476 21.8749 43.8256H22.6222C22.6416 44.0479 22.7175 44.232 22.8499 44.3776C22.9841 44.5214 23.1534 44.6288 23.3578 44.6997C23.5641 44.7687 23.7859 44.8032 24.0233 44.8032C24.2997 44.8032 24.5478 44.7591 24.7677 44.6709C24.9876 44.5808 25.1618 44.4562 25.2902 44.2971C25.4187 44.1361 25.4829 43.9482 25.4829 43.7336C25.4829 43.538 25.4274 43.3789 25.3165 43.2562C25.2056 43.1336 25.0596 43.0339 24.8786 42.9572C24.6976 42.8805 24.5021 42.8134 24.2919 42.7559L23.5563 42.5489C23.0892 42.4166 22.7195 42.2278 22.447 41.9824C22.1746 41.7371 22.0384 41.416 22.0384 41.0192C22.0384 40.6895 22.1288 40.4019 22.3098 40.1566C22.4928 39.9093 22.738 39.7176 23.0454 39.5815C23.3549 39.4435 23.7003 39.3745 24.0817 39.3745C24.467 39.3745 24.8095 39.4425 25.1092 39.5786C25.4089 39.7128 25.6463 39.8968 25.8215 40.1307C25.9986 40.3646 26.092 40.63 26.1017 40.9272H25.4011Z" fill="#C3F7FF"/>
<path d="M27.9692 42.6869V45.3438H27.2803V39.455H27.9692V41.6173H28.0276C28.1327 41.3891 28.2903 41.208 28.5005 41.0738C28.7126 40.9377 28.9948 40.8697 29.347 40.8697C29.6525 40.8697 29.9201 40.93 30.1498 41.0508C30.3794 41.1697 30.5575 41.3527 30.684 41.6C30.8124 41.8454 30.8766 42.1578 30.8766 42.5374V45.3438H30.1877V42.5834C30.1877 42.2326 30.0953 41.9614 29.9104 41.7697C29.7275 41.576 29.4735 41.4792 29.1485 41.4792C28.9228 41.4792 28.7204 41.5262 28.5413 41.6201C28.3643 41.7141 28.2241 41.8511 28.121 42.0313C28.0198 42.2115 27.9692 42.43 27.9692 42.6869Z" fill="#C3F7FF"/>
<path d="M33.9584 45.4358C33.5537 45.4358 33.1985 45.3409 32.893 45.1511C32.5894 44.9613 32.352 44.6959 32.1807 44.3546C32.0114 44.0134 31.9268 43.6147 31.9268 43.1585C31.9268 42.6984 32.0114 42.2968 32.1807 41.9537C32.352 41.6106 32.5894 41.3441 32.893 41.1543C33.1985 40.9646 33.5537 40.8697 33.9584 40.8697C34.3632 40.8697 34.7174 40.9646 35.021 41.1543C35.3265 41.3441 35.5639 41.6106 35.7332 41.9537C35.9045 42.2968 35.9901 42.6984 35.9901 43.1585C35.9901 43.6147 35.9045 44.0134 35.7332 44.3546C35.5639 44.6959 35.3265 44.9613 35.021 45.1511C34.7174 45.3409 34.3632 45.4358 33.9584 45.4358ZM33.9584 44.8262C34.2659 44.8262 34.5189 44.7486 34.7174 44.5933C34.9159 44.438 35.0628 44.2339 35.1582 43.9808C35.2535 43.7278 35.3012 43.4537 35.3012 43.1585C35.3012 42.8633 35.2535 42.5882 35.1582 42.3332C35.0628 42.0783 34.9159 41.8722 34.7174 41.715C34.5189 41.5578 34.2659 41.4792 33.9584 41.4792C33.651 41.4792 33.398 41.5578 33.1995 41.715C33.001 41.8722 32.854 42.0783 32.7587 42.3332C32.6633 42.5882 32.6157 42.8633 32.6157 43.1585C32.6157 43.4537 32.6633 43.7278 32.7587 43.9808C32.854 44.2339 33.001 44.438 33.1995 44.5933C33.398 44.7486 33.651 44.8262 33.9584 44.8262Z" fill="#C3F7FF"/>
<path d="M37.0417 47V40.9272H37.7073V41.6288H37.789C37.8396 41.5521 37.9097 41.4543 37.9992 41.3355C38.0906 41.2147 38.221 41.1074 38.3903 41.0134C38.5616 40.9176 38.7932 40.8697 39.0851 40.8697C39.4626 40.8697 39.7954 40.9626 40.0834 41.1486C40.3714 41.3345 40.5962 41.5981 40.7577 41.9393C40.9192 42.2805 41 42.6831 41 43.147C41 43.6147 40.9192 44.0201 40.7577 44.3633C40.5962 44.7045 40.3724 44.969 40.0863 45.1569C39.8003 45.3428 39.4704 45.4358 39.0968 45.4358C38.8087 45.4358 38.5781 45.3888 38.4049 45.2949C38.2317 45.199 38.0984 45.0907 38.005 44.97C37.9116 44.8473 37.8396 44.7457 37.789 44.6652H37.7306V47H37.0417ZM37.7189 43.1355C37.7189 43.469 37.7686 43.7633 37.8678 44.0182C37.9671 44.2712 38.112 44.4697 38.3028 44.6134C38.4935 44.7553 38.727 44.8262 39.0033 44.8262C39.2914 44.8262 39.5317 44.7514 39.7244 44.6019C39.919 44.4505 40.0649 44.2473 40.1622 43.9923C40.2615 43.7355 40.3111 43.4498 40.3111 43.1355C40.3111 42.8249 40.2624 42.5451 40.1651 42.2959C40.0698 42.0447 39.9248 41.8463 39.7302 41.7007C39.5375 41.553 39.2952 41.4792 39.0033 41.4792C38.7231 41.4792 38.4876 41.5492 38.2969 41.6891C38.1062 41.8272 37.9622 42.0208 37.8649 42.27C37.7676 42.5173 37.7189 42.8058 37.7189 43.1355Z" fill="#C3F7FF"/>
</svg>
