<svg width="37" height="47" viewBox="0 0 37 47" fill="none" xmlns="http://www.w3.org/2000/svg">
<path d="M6.94571 41.8259V41.2152H11.7509V41.8259H9.73623V46.9001H8.96039V41.8259H6.94571Z" fill="#C3F7FF"/>
<path d="M13.6084 47C13.3039 47 13.0275 46.9491 12.7794 46.8473C12.5312 46.7437 12.3341 46.5947 12.1881 46.4004C12.0421 46.2043 11.9691 45.9674 11.9691 45.6898C11.9691 45.4455 12.0233 45.2475 12.1318 45.0958C12.2402 44.9422 12.3852 44.8219 12.5666 44.7349C12.7481 44.648 12.9483 44.5832 13.1673 44.5406C13.3884 44.4962 13.6105 44.4611 13.8336 44.4352C14.1256 44.4018 14.3623 44.3769 14.5438 44.3602C14.7273 44.3417 14.8608 44.3112 14.9442 44.2686C15.0297 44.226 15.0725 44.152 15.0725 44.0465V44.0243C15.0725 43.7505 14.988 43.5376 14.8191 43.3859C14.6522 43.2342 14.3988 43.1583 14.0589 43.1583C13.7064 43.1583 13.4301 43.2267 13.2298 43.3637C13.0296 43.5006 12.8889 43.6468 12.8075 43.8023L12.1068 43.5802C12.2319 43.3211 12.3987 43.1194 12.6073 42.9751C12.8179 42.8289 13.0474 42.7271 13.2955 42.6697C13.5458 42.6105 13.7919 42.5809 14.0338 42.5809C14.1882 42.5809 14.3655 42.5976 14.5657 42.6309C14.768 42.6623 14.963 42.728 15.1507 42.828C15.3405 42.9279 15.4979 43.0787 15.6231 43.2804C15.7482 43.4821 15.8108 43.7523 15.8108 44.091V46.9001H15.0725V46.3227H15.0349C14.9849 46.4152 14.9014 46.5142 14.7847 46.6197C14.6679 46.7252 14.5125 46.8149 14.3185 46.889C14.1246 46.963 13.8879 47 13.6084 47ZM13.721 46.4115C14.013 46.4115 14.2591 46.3606 14.4593 46.2589C14.6616 46.1571 14.8139 46.0257 14.916 45.8647C15.0203 45.7037 15.0725 45.5344 15.0725 45.3567V44.7571C15.0412 44.7905 14.9724 44.821 14.866 44.8488C14.7617 44.8747 14.6408 44.8978 14.5031 44.9181C14.3675 44.9366 14.2351 44.9533 14.1058 44.9681C13.9786 44.9811 13.8753 44.9922 13.7961 45.0014C13.6042 45.0236 13.4249 45.0597 13.258 45.1097C13.0932 45.1578 12.9598 45.2309 12.8576 45.329C12.7575 45.4252 12.7074 45.5566 12.7074 45.7231C12.7074 45.9507 12.8023 46.1228 12.9921 46.2394C13.184 46.3542 13.4269 46.4115 13.721 46.4115Z" fill="#C3F7FF"/>
<path d="M20.562 43.5913L19.8988 43.7579C19.8571 43.6598 19.7955 43.5645 19.7142 43.4719C19.635 43.3776 19.5265 43.2998 19.3889 43.2388C19.2512 43.1777 19.075 43.1472 18.8602 43.1472C18.5661 43.1472 18.321 43.2073 18.125 43.3276C17.931 43.446 17.834 43.5969 17.834 43.7801C17.834 43.9429 17.9008 44.0715 18.0343 44.1659C18.1677 44.2603 18.3763 44.3389 18.6599 44.4018L19.3732 44.5573C19.8028 44.6498 20.123 44.7914 20.3336 44.982C20.5443 45.1707 20.6496 45.4141 20.6496 45.712C20.6496 45.9563 20.5703 46.1747 20.4118 46.3671C20.2554 46.5596 20.0364 46.7113 19.7549 46.8223C19.4733 46.9334 19.1459 46.9889 18.7726 46.9889C18.2824 46.9889 17.8768 46.8945 17.5556 46.7058C17.2344 46.517 17.0311 46.2413 16.9456 45.8786L17.6463 45.7231C17.7131 45.9526 17.8393 46.1247 18.0249 46.2394C18.2126 46.3542 18.4576 46.4115 18.76 46.4115C19.1042 46.4115 19.3774 46.3468 19.5797 46.2172C19.7841 46.0858 19.8863 45.9285 19.8863 45.7453C19.8863 45.5973 19.8279 45.4733 19.7111 45.3734C19.5943 45.2716 19.4149 45.1957 19.173 45.1458L18.3721 44.9792C17.9321 44.8867 17.6088 44.7433 17.4023 44.549C17.1979 44.3528 17.0957 44.1076 17.0957 43.8134C17.0957 43.5728 17.1719 43.36 17.3241 43.1749C17.4785 42.9899 17.6881 42.8446 17.9529 42.7391C18.2199 42.6337 18.5223 42.5809 18.8602 42.5809C19.3357 42.5809 19.709 42.6734 19.9801 42.8585C20.2533 43.0435 20.4473 43.2878 20.562 43.5913Z" fill="#C3F7FF"/>
<path d="M22.4492 45.3456L22.4367 44.5351H22.5868L24.6891 42.6364H25.6026L23.3627 44.6461H23.3001L22.4492 45.3456ZM21.761 46.9001V41.2152H22.4992V46.9001H21.761ZM24.8143 46.9001L22.9372 44.7905L23.4628 44.3352L25.7528 46.9001H24.8143Z" fill="#C3F7FF"/>
<path d="M29.9565 43.5913L29.2933 43.7579C29.2516 43.6598 29.1901 43.5645 29.1087 43.4719C29.0295 43.3776 28.921 43.2998 28.7834 43.2388C28.6457 43.1777 28.4695 43.1472 28.2547 43.1472C27.9606 43.1472 27.7156 43.2073 27.5195 43.3276C27.3256 43.446 27.2286 43.5969 27.2286 43.7801C27.2286 43.9429 27.2953 44.0715 27.4288 44.1659C27.5623 44.2603 27.7708 44.3389 28.0545 44.4018L28.7677 44.5573C29.1974 44.6498 29.5175 44.7914 29.7282 44.982C29.9388 45.1707 30.0441 45.4141 30.0441 45.712C30.0441 45.9563 29.9649 46.1747 29.8064 46.3671C29.6499 46.5596 29.431 46.7113 29.1494 46.8223C28.8678 46.9334 28.5404 46.9889 28.1671 46.9889C27.677 46.9889 27.2713 46.8945 26.9502 46.7058C26.629 46.517 26.4256 46.2413 26.3401 45.8786L27.0409 45.7231C27.1076 45.9526 27.2338 46.1247 27.4194 46.2394C27.6071 46.3542 27.8522 46.4115 28.1546 46.4115C28.4987 46.4115 28.7719 46.3468 28.9742 46.2172C29.1786 46.0858 29.2808 45.9285 29.2808 45.7453C29.2808 45.5973 29.2224 45.4733 29.1056 45.3734C28.9888 45.2716 28.8095 45.1957 28.5675 45.1458L27.7667 44.9792C27.3266 44.8867 27.0033 44.7433 26.7969 44.549C26.5925 44.3528 26.4903 44.1076 26.4903 43.8134C26.4903 43.5728 26.5664 43.36 26.7187 43.1749C26.873 42.9899 27.0826 42.8446 27.3475 42.7391C27.6144 42.6337 27.9168 42.5809 28.2547 42.5809C28.7302 42.5809 29.1035 42.6734 29.3746 42.8585C29.6479 43.0435 29.8418 43.2878 29.9565 43.5913Z" fill="#C3F7FF"/>
<path fill-rule="evenodd" clip-rule="evenodd" d="M12.8472 32.8301H5.87302C2.62944 32.8301 1.08786e-07 30.497 0 27.6189V23.2546H12.8472V32.8301ZM6.53545 27.1742L4.17363 25.0785L3.08333 26.0459L5.44516 28.1416L3.08333 30.2372L4.17363 31.2046L6.53545 29.109L8.89727 31.2046L9.98757 30.2372L7.62574 28.1416L9.98757 26.0459L8.89727 25.0785L6.53545 27.1742Z" fill="#C3F7FF"/>
<path d="M37 27.6189C37 30.497 34.3706 32.8301 31.127 32.8301H14.3889V23.2546H37V27.6189Z" fill="#C3F7FF"/>
<path fill-rule="evenodd" clip-rule="evenodd" d="M12.8472 21.8867H0V11.3993H12.8472V21.8867ZM6.02156 15.3189L3.65974 13.2232L2.56944 14.1906L4.93127 16.2863L2.56944 18.3819L3.65974 19.3493L6.02156 17.2537L8.38339 19.3493L9.47368 18.3819L7.11186 16.2863L9.47368 14.1906L8.38339 13.2232L6.02156 15.3189Z" fill="#C3F7FF"/>
<path d="M37 21.8867H14.3889V11.3993H37V21.8867Z" fill="#C3F7FF"/>
<path d="M6.16667 3.19181C7.30192 3.19181 8.22222 4.00839 8.22222 5.0157C8.22222 6.02301 7.30192 6.83959 6.16667 6.83959C5.03141 6.83959 4.11111 6.02301 4.11111 5.0157C4.11111 4.00839 5.03141 3.19181 6.16667 3.19181Z" fill="#C3F7FF"/>
<path fill-rule="evenodd" clip-rule="evenodd" d="M12.8472 10.0314H0V5.21112C0 2.3331 2.62944 9.65224e-08 5.87302 0H12.8472V10.0314ZM6.16667 1.82389C4.17998 1.82389 2.56944 3.25291 2.56944 5.0157C2.56944 6.77849 4.17998 8.20751 6.16667 8.20751C8.15336 8.20751 9.76389 6.77849 9.76389 5.0157C9.76389 3.25291 8.15336 1.82389 6.16667 1.82389Z" fill="#C3F7FF"/>
<path d="M31.127 0C34.3706 0 37 2.3331 37 5.21112V10.0314H14.3889V0H31.127Z" fill="#C3F7FF"/>
</svg>
