<svg width="48" height="49" viewBox="0 0 48 49" fill="none" xmlns="http://www.w3.org/2000/svg">
<path d="M20.7001 26H26.4144V30L33.5573 34H13.5573L20.7001 30V26Z" fill="#C3F7FF"/>
<path fill-rule="evenodd" clip-rule="evenodd" d="M43.5573 25.001C43.5573 25.5533 43.1095 26.001 42.5573 26.001H5.55726C5.00498 26.001 4.55726 25.5533 4.55726 25.001V1C4.55726 0.447715 5.00498 0 5.55726 0H42.5573C43.1095 0 43.5573 0.447715 43.5573 1V25.001ZM10.5573 5C10.005 5 9.55726 5.44772 9.55726 6V20C9.55726 20.5523 10.005 21 10.5573 21H37.5573C38.1095 21 38.5573 20.5523 38.5573 20V6C38.5573 5.44772 38.1095 5 37.5573 5H10.5573Z" fill="#C3F7FF"/>
<path d="M1.78977 48L0 41.4545H0.805398L2.1733 46.7855H2.23722L3.63068 41.4545H4.52557L5.91903 46.7855H5.98295L7.35085 41.4545H8.15625L6.36648 48H5.5483L4.10369 42.7841H4.05256L2.60795 48H1.78977Z" fill="#C3F7FF"/>
<path d="M10.5788 48.1023C10.1357 48.1023 9.7468 47.9968 9.41229 47.7859C9.0799 47.5749 8.81996 47.2798 8.63246 46.9006C8.44709 46.5213 8.3544 46.0781 8.3544 45.571C8.3544 45.0597 8.44709 44.6133 8.63246 44.2319C8.81996 43.8505 9.0799 43.5543 9.41229 43.3434C9.7468 43.1325 10.1357 43.027 10.5788 43.027C11.022 43.027 11.4098 43.1325 11.7422 43.3434C12.0767 43.5543 12.3366 43.8505 12.522 44.2319C12.7095 44.6133 12.8033 45.0597 12.8033 45.571C12.8033 46.0781 12.7095 46.5213 12.522 46.9006C12.3366 47.2798 12.0767 47.5749 11.7422 47.7859C11.4098 47.9968 11.022 48.1023 10.5788 48.1023ZM10.5788 47.4247C10.9155 47.4247 11.1925 47.3384 11.4098 47.1658C11.6271 46.9933 11.788 46.7663 11.8924 46.4851C11.9968 46.2038 12.049 45.8991 12.049 45.571C12.049 45.2429 11.9968 44.9371 11.8924 44.6538C11.788 44.3704 11.6271 44.1413 11.4098 43.9666C11.1925 43.7919 10.9155 43.7045 10.5788 43.7045C10.2422 43.7045 9.9652 43.7919 9.74787 43.9666C9.53054 44.1413 9.36967 44.3704 9.26527 44.6538C9.16087 44.9371 9.10866 45.2429 9.10866 45.571C9.10866 45.8991 9.16087 46.2038 9.26527 46.4851C9.36967 46.7663 9.53054 46.9933 9.74787 47.1658C9.9652 47.3384 10.2422 47.4247 10.5788 47.4247Z" fill="#C3F7FF"/>
<path d="M13.9546 48V43.0909H14.6833V43.8324H14.7345C14.824 43.5895 14.9859 43.3924 15.2203 43.2411C15.4546 43.0898 15.7188 43.0142 16.0129 43.0142C16.0683 43.0142 16.1375 43.0153 16.2206 43.0174C16.3037 43.0195 16.3666 43.0227 16.4092 43.027V43.794C16.3836 43.7876 16.325 43.7781 16.2334 43.7653C16.1439 43.7504 16.0491 43.7429 15.949 43.7429C15.7103 43.7429 15.4972 43.793 15.3097 43.8931C15.1244 43.9911 14.9774 44.1275 14.8687 44.3022C14.7622 44.4748 14.7089 44.6719 14.7089 44.8935V48H13.9546Z" fill="#C3F7FF"/>
<path d="M18.0064 46.2102L17.9936 45.277H18.147L20.2947 43.0909H21.228L18.9396 45.4048H18.8757L18.0064 46.2102ZM17.3033 48V41.4545H18.0575V48H17.3033ZM20.4226 48L18.505 45.571L19.0419 45.0469L21.3814 48H20.4226Z" fill="#C3F7FF"/>
<path d="M24.8323 48V41.4545H27.0439C27.5553 41.4545 27.9751 41.5419 28.3032 41.7166C28.6313 41.8892 28.8742 42.1268 29.0319 42.4293C29.1895 42.7319 29.2684 43.076 29.2684 43.4616C29.2684 43.8473 29.1895 44.1893 29.0319 44.4876C28.8742 44.7859 28.6324 45.0202 28.3064 45.1907C27.9804 45.359 27.5638 45.4432 27.0567 45.4432H25.267V44.7273H27.0312C27.3806 44.7273 27.6618 44.6761 27.8749 44.5739C28.0901 44.4716 28.2456 44.3267 28.3415 44.1392C28.4395 43.9496 28.4885 43.7237 28.4885 43.4616C28.4885 43.1996 28.4395 42.9705 28.3415 42.7745C28.2435 42.5785 28.0869 42.4272 27.8717 42.3207C27.6565 42.212 27.3721 42.1577 27.0184 42.1577H25.6249V48H24.8323ZM27.9133 45.0597L29.5241 48H28.6036L27.0184 45.0597H27.9133Z" fill="#C3F7FF"/>
<path d="M32.4284 48.1023C31.9853 48.1023 31.5964 47.9968 31.2619 47.7859C30.9295 47.5749 30.6696 47.2798 30.4821 46.9006C30.2967 46.5213 30.204 46.0781 30.204 45.571C30.204 45.0597 30.2967 44.6133 30.4821 44.2319C30.6696 43.8505 30.9295 43.5543 31.2619 43.3434C31.5964 43.1325 31.9853 43.027 32.4284 43.027C32.8716 43.027 33.2594 43.1325 33.5918 43.3434C33.9263 43.5543 34.1863 43.8505 34.3716 44.2319C34.5591 44.6133 34.6529 45.0597 34.6529 45.571C34.6529 46.0781 34.5591 46.5213 34.3716 46.9006C34.1863 47.2798 33.9263 47.5749 33.5918 47.7859C33.2594 47.9968 32.8716 48.1023 32.4284 48.1023ZM32.4284 47.4247C32.7651 47.4247 33.0421 47.3384 33.2594 47.1658C33.4767 46.9933 33.6376 46.7663 33.742 46.4851C33.8464 46.2038 33.8986 45.8991 33.8986 45.571C33.8986 45.2429 33.8464 44.9371 33.742 44.6538C33.6376 44.3704 33.4767 44.1413 33.2594 43.9666C33.0421 43.7919 32.7651 43.7045 32.4284 43.7045C32.0918 43.7045 31.8148 43.7919 31.5975 43.9666C31.3801 44.1413 31.2193 44.3704 31.1149 44.6538C31.0105 44.9371 30.9583 45.2429 30.9583 45.571C30.9583 45.8991 31.0105 46.2038 31.1149 46.4851C31.2193 46.7663 31.3801 46.9933 31.5975 47.1658C31.8148 47.3384 32.0918 47.4247 32.4284 47.4247Z" fill="#C3F7FF"/>
<path d="M37.7986 48.1023C37.3554 48.1023 36.9665 47.9968 36.632 47.7859C36.2996 47.5749 36.0397 47.2798 35.8522 46.9006C35.6668 46.5213 35.5741 46.0781 35.5741 45.571C35.5741 45.0597 35.6668 44.6133 35.8522 44.2319C36.0397 43.8505 36.2996 43.5543 36.632 43.3434C36.9665 43.1325 37.3554 43.027 37.7986 43.027C38.2417 43.027 38.6295 43.1325 38.9619 43.3434C39.2964 43.5543 39.5564 43.8505 39.7417 44.2319C39.9292 44.6133 40.023 45.0597 40.023 45.571C40.023 46.0781 39.9292 46.5213 39.7417 46.9006C39.5564 47.2798 39.2964 47.5749 38.9619 47.7859C38.6295 47.9968 38.2417 48.1023 37.7986 48.1023ZM37.7986 47.4247C38.1352 47.4247 38.4122 47.3384 38.6295 47.1658C38.8469 46.9933 39.0077 46.7663 39.1121 46.4851C39.2165 46.2038 39.2687 45.8991 39.2687 45.571C39.2687 45.2429 39.2165 44.9371 39.1121 44.6538C39.0077 44.3704 38.8469 44.1413 38.6295 43.9666C38.4122 43.7919 38.1352 43.7045 37.7986 43.7045C37.4619 43.7045 37.1849 43.7919 36.9676 43.9666C36.7503 44.1413 36.5894 44.3704 36.485 44.6538C36.3806 44.9371 36.3284 45.2429 36.3284 45.571C36.3284 45.8991 36.3806 46.2038 36.485 46.4851C36.5894 46.7663 36.7503 46.9933 36.9676 47.1658C37.1849 47.3384 37.4619 47.4247 37.7986 47.4247Z" fill="#C3F7FF"/>
<path d="M41.1744 48V43.0909H41.9031V43.858H41.967C42.0692 43.5959 42.2344 43.3924 42.4624 43.2475C42.6903 43.1005 42.9641 43.027 43.2837 43.027C43.6076 43.027 43.8771 43.1005 44.0923 43.2475C44.3097 43.3924 44.479 43.5959 44.6005 43.858H44.6516C44.7773 43.6044 44.9659 43.4031 45.2173 43.2539C45.4688 43.1026 45.7702 43.027 46.1218 43.027C46.5607 43.027 46.9197 43.1644 47.1989 43.4393C47.478 43.712 47.6175 44.1371 47.6175 44.7145V48H46.8633V44.7145C46.8633 44.3523 46.7642 44.0934 46.5661 43.9379C46.3679 43.7823 46.1346 43.7045 45.8661 43.7045C45.521 43.7045 45.2536 43.809 45.0639 44.0178C44.8743 44.2244 44.7795 44.4865 44.7795 44.804V48H44.0124V44.6378C44.0124 44.3587 43.9219 44.1339 43.7408 43.9634C43.5597 43.7908 43.3263 43.7045 43.0408 43.7045C42.8448 43.7045 42.6616 43.7567 42.4911 43.8611C42.3228 43.9656 42.1864 44.1104 42.082 44.2958C41.9798 44.479 41.9286 44.6911 41.9286 44.9318V48H41.1744Z" fill="#C3F7FF"/>
</svg>
