<svg width="78" height="67" viewBox="0 0 78 67" fill="none" xmlns="http://www.w3.org/2000/svg">
<path d="M20.7089 32.8828C21.9576 31.8315 24.4679 32.7431 26.3157 34.9191C28.1633 37.095 28.6487 39.7113 27.3999 40.7626C26.1511 41.8137 23.6411 40.9021 21.7935 38.7263C19.9458 36.5503 19.4602 33.9341 20.7089 32.8828Z" fill="#FCF1EF"/>
<path d="M59.3125 32.8828C60.5613 31.8315 63.0716 32.7431 64.9193 34.9191C66.767 37.095 67.2523 39.7113 66.0036 40.7626C64.7548 41.8137 62.2448 40.9021 60.3971 38.7263C58.5494 36.5503 58.0639 33.9341 59.3125 32.8828Z" fill="#FCF1EF"/>
<path fill-rule="evenodd" clip-rule="evenodd" d="M35.6433 0.398956C35.6434 2.27749 37.1729 3.80054 39.0596 3.80054C40.9461 3.80045 42.4757 2.27744 42.4758 0.398956V0.0568038C55.1134 0.351428 67.0685 1.68085 70.2098 3.80021C80.4368 10.7006 80.7554 53.2355 70.2098 62.3075C66.2729 65.6941 54.6558 67.009 42.4758 67V66.322C42.4758 64.4434 40.9462 62.9205 39.0596 62.9204C37.1728 62.9204 35.6433 64.4433 35.6433 66.322V66.8621C22.913 66.3612 11.0241 64.5569 8.1795 62.3075C-2.69982 53.7037 -2.75315 13.6553 8.1795 3.80021C10.9882 1.26842 22.9201 0.0860876 35.6433 0V0.398956ZM39.0596 49.0416C37.1729 49.0416 35.6434 50.5646 35.6433 52.4432V55.9129C35.6434 57.7914 37.1729 59.3145 39.0596 59.3145C40.9461 59.3144 42.4757 57.7914 42.4758 55.9129V52.4432C42.4757 50.5647 40.9462 49.0417 39.0596 49.0416ZM19.8141 29.2786C13.7766 29.2786 8.8821 34.152 8.8821 40.1636C8.88223 46.1751 13.7767 51.0486 19.8141 51.0487C25.8516 51.0487 30.746 46.1752 30.7461 40.1636C30.7461 34.152 25.8517 29.2786 19.8141 29.2786ZM58.4178 29.2786C52.3803 29.2786 47.4858 34.152 47.4858 40.1636C47.4859 46.1751 52.3803 51.0486 58.4178 51.0487C64.4553 51.0487 69.3496 46.1752 69.3498 40.1636C69.3498 34.152 64.4553 29.2786 58.4178 29.2786ZM39.0596 35.1632C37.1728 35.1632 35.6433 36.6862 35.6433 38.5648V42.0345C35.6434 43.913 37.1729 45.4361 39.0596 45.4361C40.9461 45.436 42.4757 43.913 42.4758 42.0345V38.5648C42.4758 36.6863 40.9462 35.1633 39.0596 35.1632ZM39.0596 21.2848C37.1728 21.2848 35.6433 22.8078 35.6433 24.6864V28.1561C35.6435 30.0346 37.1729 31.5577 39.0596 31.5577C40.9461 31.5576 42.4756 30.0345 42.4758 28.1561V24.6864C42.4758 22.8078 40.9462 21.2849 39.0596 21.2848ZM39.0596 7.40642C37.1728 7.40642 35.6433 8.92936 35.6433 10.808V14.2777C35.6435 16.1562 37.1729 17.6793 39.0596 17.6793C40.9461 17.6792 42.4756 16.1561 42.4758 14.2777V10.808C42.4758 8.92942 40.9462 7.40651 39.0596 7.40642Z" fill="#FCF1EF"/>
</svg>
